{"title":"The.Apartment.1960.720p.BluRay.X264-AMIABLE","uid":7092585,"size":5892387590,"categoryP":"video","categoryS":"hd___movies","magnet":"?xt=urn:btih:826cec6fd01ecf0522da305bb541ef5426e6f6a1&amp;dn=The.Apartment.1960.720p.BluRay.X264-AMIABLE&amp;tr=udp%3A%2F%2Ftracker.openbittorrent.com%3A80&amp;tr=udp%3A%2F%2Fopen.demonii.com%3A1337&amp;tr=udp%3A%2F%2Ftracker.coppersurfer.tk%3A6969&amp;tr=udp%3A%2F%2Fexodus.desync.com%3A6969","seeders":1,"leechers":0,"uploader":"mfccorrea","files":3,"time":1331416720,"description":"Widely regarded as a comedy in 1960, The Apartment seems more melancholy with each passing year. Jack Lemmon plays C.C. Baxter, a go-getting office worker who loans his tiny apartment to his philandering superiors for their romantic trysts. He runs into trouble when he finds himself sharing a girlfriend (Shirley MacLaine) with his callous boss (Fred MacMurray). Director/co-writer Billy Wilder claimed that the idea for The Apartment stemmed from a short scene in the 1945 romantic drama Brief Encounter in which the illicit lovers (Trevor Howard and Celia Johnson) arrange a rendezvous in a third person's apartment. Wilder was intrigued about what sort of person would willingly vacate his residence to allow virtual strangers a playing field for hanky panky. His answer to that question wound up winning 6 Academy Awards, including Best Picture, Best Director, and Best Original Screenplay. The Apartment was adapted by Neil Simon and Burt Bacharach into the 1969 Broadway musical Promises, Promises.\n\n   General\n      Complete name : The.Apartment.1960.720p.BluRay.X264-AMIABLE.mkv\n      Format : Matroska\n      File size : 5.47 GiB\n      Duration : 2h 5mn\n      Overall bit rate : 6 249 Kbps\n      Writing application : x264.exe\n      Writing library : mkv2rls v1.4 (date: 2011 mar 29)\n   Video #1\n      ID : 1\n      Format : AVC\n      Format/Info : Advanced Video Codec\n      Format profile : &lt;a class=&quot;__cf_email__&quot; href=&quot;/cdn-cgi/l/email-protection&quot; data-cfemail=&quot;622a0b050a222e564c53&quot;&gt;[email&amp;#160;protected]&lt;/a&gt;&lt;script cf-hash='f9e31' type=&quot;text/javascript&quot;&gt;\n/* &lt;![CDATA[ */!function(){try{var t=&quot;currentScript&quot;in document?document.currentScript:function(){for(var t=document.getElementsByTagName(&quot;script&quot;),e=t.length;e--;)if(t[e].getAttribute(&quot;cf-hash&quot;))return t[e]}();if(t&amp;&amp;t.previousSibling){var e,r,n,i,c=t.previousSibling,a=c.getAttribute(&quot;data-cfemail&quot;);if(a){for(e=&quot;&quot;,r=parseInt(a.substr(0,2),16),n=2;a.length-n;n+=2)i=parseInt(a.substr(n,2),16)^r,e+=String.fromCharCode(i);e=document.createTextNode(e),c.parentNode.replaceChild(e,c)}}}catch(u){}}();/* ]]&gt; */&lt;/script&gt;\n      Format settings, CABAC : Yes\n      Format settings, ReFrames : 5 frames\n      Muxing mode : Container profile=&lt;a class=&quot;__cf_email__&quot; href=&quot;/cdn-cgi/l/email-protection&quot; data-cfemail=&quot;95c0fbfefbfae2fbd5a1bba4&quot;&gt;[email&amp;#160;protected]&lt;/a&gt;&lt;script cf-hash='f9e31' type=&quot;text/javascript&quot;&gt;\n/* &lt;![CDATA[ */!function(){try{var t=&quot;currentScript&quot;in document?document.currentScript:function(){for(var t=document.getElementsByTagName(&quot;script&quot;),e=t.length;e--;)if(t[e].getAttribute(&quot;cf-hash&quot;))return t[e]}();if(t&amp;&amp;t.previousSibling){var e,r,n,i,c=t.previousSibling,a=c.getAttribute(&quot;data-cfemail&quot;);if(a){for(e=&quot;&quot;,r=parseInt(a.substr(0,2),16),n=2;a.length-n;n+=2)i=parseInt(a.substr(n,2),16)^r,e+=String.fromCharCode(i);e=document.createTextNode(e),c.parentNode.replaceChild(e,c)}}}catch(u){}}();/* ]]&gt; */&lt;/script&gt;\n      Codec ID : V_MPEG4/ISO/AVC\n      Duration : 2h 5mn\n      Bit rate : 4 615 Kbps\n      Nominal bit rate : 4 738 Kbps\n      Width : 1 280 pixels\n      Height : 544 pixels\n      Display aspect ratio : 2.35:1\n      Frame rate : 23.976 fps\n      Resolution : 24 bits\n      Colorimetry : 4:2:0\n      Scan type : Progressive\n      Bits/(Pixel*Frame) : 0.276\n      Stream size : 4.03 GiB (74%)\n      Writing library : x264 core 120 r2145 748fe16\n   Audio #2\n      ID : 2\n      Format : DTS\n      Format/Info : Digital Theater Systems\n      Codec ID : A_DTS\n      Duration : 2h 5mn\n      Bit rate mode : Constant\n      Bit rate : 1 510 Kbps\n      Channel(s) : 6 channels\n      Channel positions : Front: L C R, Surround: L R, LFE\n      Sampling rate : 48.0 KHz\n      Resolution : 24 bits\n      Stream size : 1.32 GiB (24%)\n      Language : English\n   Text #3\n      ID : 3\n      Format : UTF-8\n      Codec ID : S_TEXT/UTF8\n      Codec ID/Info : UTF-8 Plain Text\n      Language : English\n &lt;a href=&quot;\nhttp://www.imdb.com/title/tt0053604/&quot; rel=&quot;nofollow&quot; target=&quot;_NEW&quot;&gt;\nhttp://www.imdb.com/title/tt0053604/&lt;/a&gt;\n\nAudio: English\nSubtitles: English, French and Japanese (idx/sub)","torrent":{"xt":"urn:btih:826cec6fd01ecf0522da305bb541ef5426e6f6a1","amp;dn":"The.Apartment.1960.720p.BluRay.X264-AMIABLE","amp;tr":["udp%3A%2F%2Ftracker.openbittorrent.com%3A80","udp%3A%2F%2Fopen.demonii.com%3A1337","udp%3A%2F%2Ftracker.coppersurfer.tk%3A6969","udp%3A%2F%2Fexodus.desync.com%3A6969"],"infoHash":"826cec6fd01ecf0522da305bb541ef5426e6f6a1","infoHashBuffer":{"type":"Buffer","data":[130,108,236,111,208,30,207,5,34,218,48,91,181,65,239,84,38,230,246,161]},"announce":[],"urlList":[]}}